<svg xmlns="http://www.w3.org/2000/svg" width="1200" height="760" viewBox="0 0 1200 760" role="img" aria-labelledby="title desc">
<title id="title">Build a Decision Log That Prevents Repeated Debates article graphic</title>
<desc id="desc">Unique branded article graphic for ResultsBreakthrough: Build a Decision Log That Prevents Repeated Debates.</desc>
<rect width="1200" height="760" fill="#eef2ff"/>
<rect width="1200" height="30" fill="#4f46e5"/>
<path d="M0 650 C190 570 250 720 430 625 S780 548 1200 650 L1200 760 L0 760 Z" fill="#172554" opacity="0.08"/>
<text x="72" y="84" fill="#4f46e5" font-size="22" font-weight="800" letter-spacing="3">RESULTSBREAKTHROUGH</text>
<text x="72" y="150" fill="#172554" font-size="44" font-weight="800">Build a Decision Log That Prevents</text><text x="72" y="208" fill="#172554" font-size="44" font-weight="800">Repeated Debates</text>
<circle cx="780" cy="430" r="112" fill="#172554"/>
<text x="780" y="418" text-anchor="middle" fill="white" font-size="25" font-weight="800">ARTICLE</text>
<text x="780" y="454" text-anchor="middle" fill="white" font-size="25" font-weight="800">MAP</text>
<line x1="780" y1="430" x2="838" y2="615" stroke="#4f46e5" stroke-width="6"/><circle cx="838" cy="615" r="45" fill="white" stroke="#4f46e5" stroke-width="6"/><text x="838" y="621" text-anchor="middle" fill="#172554" font-size="16" font-weight="800">CHECK</text><line x1="780" y1="430" x2="536" y2="494" stroke="#4f46e5" stroke-width="6"/><circle cx="536" cy="494" r="54" fill="white" stroke="#4f46e5" stroke-width="6"/><text x="536" y="500" text-anchor="middle" fill="#172554" font-size="16" font-weight="800">VERIFY</text><line x1="780" y1="430" x2="533" y2="372" stroke="#4f46e5" stroke-width="6"/><circle cx="533" cy="372" r="49" fill="white" stroke="#4f46e5" stroke-width="6"/><text x="533" y="378" text-anchor="middle" fill="#172554" font-size="16" font-weight="800">MAP</text><line x1="780" y1="430" x2="820" y2="243" stroke="#4f46e5" stroke-width="6"/><circle cx="820" cy="243" r="46" fill="white" stroke="#4f46e5" stroke-width="6"/><text x="820" y="249" text-anchor="middle" fill="#172554" font-size="16" font-weight="800">NEXT</text>
<circle cx="90" cy="680" r="9" fill="#4f46e5" opacity="0.35"/><circle cx="172" cy="680" r="8" fill="#4f46e5" opacity="0.35"/><circle cx="254" cy="680" r="8" fill="#4f46e5" opacity="0.35"/><circle cx="336" cy="680" r="8" fill="#4f46e5" opacity="0.35"/><circle cx="418" cy="680" r="12" fill="#4f46e5" opacity="0.35"/><circle cx="500" cy="680" r="10" fill="#4f46e5" opacity="0.35"/><circle cx="582" cy="680" r="13" fill="#4f46e5" opacity="0.35"/><circle cx="664" cy="680" r="10" fill="#4f46e5" opacity="0.35"/><circle cx="746" cy="680" r="13" fill="#4f46e5" opacity="0.35"/><circle cx="828" cy="680" r="10" fill="#4f46e5" opacity="0.35"/><circle cx="910" cy="680" r="13" fill="#4f46e5" opacity="0.35"/><circle cx="992" cy="680" r="10" fill="#4f46e5" opacity="0.35"/>
<text x="72" y="724" fill="#172554" font-size="18">Unique article graphic • build-a-decision-log-that-prevents-repeated-debates</text>
</svg>
