<svg xmlns="http://www.w3.org/2000/svg" width="1200" height="760" viewBox="0 0 1200 760" role="img" aria-labelledby="title desc"><title id="title">Decision Deadline Rules for Reversible and Irreversible Choices</title><desc id="desc">Original editorial illustration for Decision Deadline Rules for Reversible and Irreversible Choices, showing a distinct evidence-to-decision path with checkpoints and a stop branch.</desc><rect width="1200" height="760" fill="#f6f7f3"/><g><rect x="344" y="326" width="152" height="103" rx="24" fill="#d7a93e" stroke="#243b6b" stroke-width="4"/><rect x="918" y="356" width="146" height="150" rx="24" fill="#ffffff" stroke="#243b6b" stroke-width="5"/><rect x="176" y="357" width="113" height="137" rx="24" fill="#dfe8e3" stroke="#243b6b" stroke-width="6"/><rect x="315" y="335" width="86" height="104" rx="30" fill="#d7a93e" stroke="#243b6b" stroke-width="7"/><rect x="681" y="469" width="159" height="126" rx="31" fill="#ffffff" stroke="#243b6b" stroke-width="4"/><rect x="262" y="364" width="183" height="90" rx="31" fill="#dfe8e3" stroke="#243b6b" stroke-width="5"/><rect x="559" y="313" width="93" height="45" rx="13" fill="#d7a93e" stroke="#243b6b" stroke-width="6"/><rect x="479" y="197" width="85" height="45" rx="9" fill="#ffffff" stroke="#243b6b" stroke-width="7"/><rect x="353" y="212" width="80" height="45" rx="20" fill="#dfe8e3" stroke="#243b6b" stroke-width="4"/><polyline points="90,586 255,538 420,573 585,568 750,556 915,529 1080,528" fill="none" stroke="#243b6b" stroke-width="12" stroke-linecap="round" stroke-linejoin="round"/><text x="70" y="88" font-family="Arial,sans-serif" font-size="40" font-weight="700" fill="#243b6b">Decision Deadline Rules for Reversible and Irreve</text><text x="72" y="135" font-family="Arial,sans-serif" font-size="21" fill="#243b6b">Observe → compare → decide → record</text><path d="M1010 545 l75 75 m0 -75 l-75 75" stroke="#d7a93e" stroke-width="15"/><text x="930" y="690" font-family="Arial,sans-serif" font-size="23" fill="#243b6b">STOP / VERIFY</text></g></svg>
