<svg xmlns="http://www.w3.org/2000/svg" width="1200" height="760" viewBox="0 0 1200 760" role="img" aria-labelledby="title desc"><title id="title">Meeting Cost Audit: Reclaim Focus Without Chaos</title><desc id="desc">Original editorial illustration for Meeting Cost Audit: Reclaim Focus Without Chaos, showing a distinct evidence-to-decision path with checkpoints and a stop branch.</desc><rect width="1200" height="760" fill="#f6f7f3"/><g><rect x="178" y="194" width="249" height="87" rx="26" fill="#d7a93e" stroke="#243b6b" stroke-width="4"/><rect x="432" y="325" width="85" height="141" rx="12" fill="#ffffff" stroke="#243b6b" stroke-width="5"/><rect x="115" y="513" width="191" height="55" rx="21" fill="#dfe8e3" stroke="#243b6b" stroke-width="6"/><rect x="656" y="210" width="195" height="100" rx="23" fill="#d7a93e" stroke="#243b6b" stroke-width="7"/><rect x="840" y="191" width="195" height="51" rx="29" fill="#ffffff" stroke="#243b6b" stroke-width="4"/><rect x="980" y="302" width="142" height="46" rx="19" fill="#dfe8e3" stroke="#243b6b" stroke-width="5"/><rect x="881" y="422" width="87" height="45" rx="16" fill="#d7a93e" stroke="#243b6b" stroke-width="6"/><rect x="985" y="204" width="80" height="45" rx="28" fill="#ffffff" stroke="#243b6b" stroke-width="7"/><rect x="998" y="190" width="80" height="45" rx="13" fill="#dfe8e3" stroke="#243b6b" stroke-width="4"/><polyline points="90,537 255,540 420,537 585,590 750,580 915,526 1080,596" fill="none" stroke="#243b6b" stroke-width="12" stroke-linecap="round" stroke-linejoin="round"/><text x="70" y="88" font-family="Arial,sans-serif" font-size="40" font-weight="700" fill="#243b6b">Meeting Cost Audit: Reclaim Focus Without Chaos</text><text x="72" y="135" font-family="Arial,sans-serif" font-size="21" fill="#243b6b">Observe → compare → decide → record</text><path d="M1010 545 l75 75 m0 -75 l-75 75" stroke="#d7a93e" stroke-width="15"/><text x="930" y="690" font-family="Arial,sans-serif" font-size="23" fill="#243b6b">STOP / VERIFY</text></g></svg>
